<svg width="512" height="512" viewBox="0 0 512 512" fill="none" xmlns="http://www.w3.org/2000/svg">
<path d="M258.238 136.549C283.754 139.892 307.993 149.698 328.655 165.038C332.821 168.331 337.054 171.354 340.749 175.117C368.936 201.17 386.179 236.953 388.993 275.232C396.888 275.958 404.379 279.054 410.483 284.115C416.587 289.175 421.017 295.963 423.193 303.587C425.74 313.023 425.326 323.013 422.01 332.206C418.693 341.4 412.633 349.352 404.648 354.989C397.257 360.163 388.186 363.052 379.116 362.85C375.756 362.85 372.396 361.775 369.037 361.641C367.76 363.119 366.82 364.933 365.812 366.546C353.583 385.835 337.112 402.077 317.655 414.036C298.198 425.994 276.267 433.353 253.535 435.552C246.143 436.022 238.82 436.895 231.361 436.022C205.151 434.765 179.727 426.669 157.617 412.539C135.507 398.408 117.481 378.736 105.332 355.478C93.1829 332.22 87.3344 306.186 88.3679 279.967C89.4014 253.747 97.2809 228.255 111.223 206.025C123.819 185.826 141.039 168.912 161.461 156.68C181.883 144.448 204.921 137.248 228.674 135.676C238.484 134.735 248.428 135.474 258.238 136.549Z" fill="#0B0B0B"/>
<path fill-rule="evenodd" clip-rule="evenodd" d="M327.311 169.07C301.143 149.111 268.968 138.639 236.065 139.371C227.33 139.237 218.461 140.446 209.86 142.059C184.062 147.237 160.134 159.269 140.593 176.89C121.052 194.511 106.617 217.07 98.8077 242.197C90.998 267.325 90.101 294.092 96.211 319.685C102.321 345.279 115.212 368.754 133.53 387.644C155.783 410.572 184.908 425.615 216.484 430.49C248.061 435.364 280.367 429.805 308.497 414.655C332.014 402.023 351.634 382.873 365.207 359.894L363.191 358.819C361.31 357.878 359.361 356.803 357.816 355.459C356.338 354.115 357.614 351.562 359.63 352.301C360.638 352.772 361.646 353.376 362.587 353.914C368.786 357.41 375.863 359.041 382.967 358.612C390.07 358.183 396.899 355.711 402.633 351.495C409.917 346.354 415.438 339.093 418.444 330.7C421.45 322.307 421.795 313.191 419.431 304.595C416.909 295.849 411.14 288.398 403.305 283.766C398.549 281.02 393.219 279.421 387.737 279.094C382.255 278.768 376.773 279.723 371.725 281.884C370.65 282.422 369.44 282.892 368.365 282.758C366.685 282.624 366.484 279.936 367.962 279.264C373.337 276.576 379.049 275.501 385.029 274.964C382.312 237.13 364.958 201.844 336.651 176.595C333.694 173.908 330.805 171.153 327.311 169.003V169.07ZM399.609 300.9C400.953 300.093 400.483 297.473 398.669 297.54C397.325 297.54 395.846 298.078 394.503 298.615L393.562 298.884C387.466 300.789 381.691 303.598 376.428 307.216C374.95 308.559 374.95 310.172 376.495 311.382C377.64 312.046 378.805 312.673 379.989 313.263C383.326 314.645 386.311 316.758 388.724 319.445C388.59 320.721 387.38 321.729 386.44 322.468L386.305 322.603C383.685 324.618 380.392 325.962 377.167 327.306C375.487 327.978 373.875 328.65 372.397 329.389C371.254 329.926 370.65 330.867 371.322 332.009C371.993 333.353 373.472 332.748 374.681 332.345L375.084 332.211L378.713 330.666C382.341 329.12 386.104 327.642 389.06 325.29C390.874 323.879 392.487 321.863 392.688 319.445C392.352 317.16 390.874 315.615 389.127 314.204C386.667 312.38 384.06 310.762 381.333 309.366L380.594 308.963C384.222 306.947 387.851 305.2 391.748 303.789L395.107 302.647C396.646 302.169 398.151 301.585 399.609 300.9Z" fill="#D9A484"/>
<path d="M253.736 255.209C263.524 254.262 273.347 256.61 281.649 261.881C289.95 267.152 296.254 275.043 299.561 284.303C302.578 292.83 302.873 302.084 300.406 310.785C297.938 319.487 292.83 327.209 285.787 332.883C280.481 337.251 274.224 340.315 267.52 341.826C260.815 343.338 253.85 343.256 247.183 341.587C240.516 339.918 234.333 336.708 229.132 332.216C223.93 327.724 219.855 322.074 217.233 315.721C214.612 309.367 213.517 302.488 214.037 295.635C214.557 288.782 216.677 282.146 220.227 276.261C223.777 270.376 228.658 265.406 234.478 261.75C240.298 258.094 246.894 255.853 253.736 255.209Z" fill="#0B0B0B"/>
<path d="M253.064 259.174C263.605 257.828 274.248 260.725 282.653 267.227C291.058 273.729 296.536 283.304 297.881 293.845C299.227 304.385 296.33 315.029 289.828 323.434C283.325 331.838 273.751 337.316 263.21 338.661C257.991 339.328 252.692 338.959 247.615 337.577C242.538 336.196 237.783 333.827 233.621 330.608C225.216 324.106 219.739 314.531 218.393 303.99C217.048 293.45 219.945 282.806 226.447 274.402C232.949 265.997 242.524 260.519 253.064 259.174Z" fill="white"/>
<path d="M140.115 270.395C149.383 269.482 158.656 272.083 166.097 277.683C173.539 283.283 178.606 291.473 180.296 300.631C181.634 307.94 180.737 315.483 177.723 322.275C174.709 329.067 169.718 334.793 163.4 338.705C157.083 342.617 149.733 344.533 142.309 344.205C134.886 343.876 127.734 341.317 121.787 336.862C115.84 332.406 111.374 326.262 108.973 319.23C106.571 312.198 106.345 304.606 108.324 297.443C110.303 290.281 114.395 283.882 120.066 279.08C125.737 274.279 132.724 271.299 140.115 270.529V270.395Z" fill="#0B0B0B"/>
<path d="M138.099 274.628C143.372 273.65 148.804 273.972 153.925 275.566C159.045 277.161 163.7 279.979 167.485 283.778C171.271 287.577 174.073 292.241 175.65 297.367C177.226 302.493 177.529 307.926 176.533 313.196C175.46 319.171 172.768 324.737 168.752 329.289C164.735 333.841 159.547 337.204 153.752 339.013C147.957 340.822 141.777 341.007 135.885 339.547C129.992 338.088 124.612 335.041 120.331 330.737C116.05 326.433 113.03 321.038 111.602 315.137C110.174 309.237 110.391 303.058 112.23 297.273C114.069 291.487 117.46 286.317 122.033 282.324C126.606 278.332 132.186 275.67 138.167 274.628H138.099Z" fill="white"/>
<path d="M238.215 283.296C240.379 282.853 242.612 282.864 244.772 283.328C246.932 283.792 248.972 284.698 250.765 285.99C252.557 287.281 254.062 288.93 255.186 290.832C256.309 292.735 257.026 294.849 257.291 297.042C257.557 299.235 257.365 301.46 256.728 303.575C256.091 305.691 255.022 307.651 253.59 309.333C252.157 311.015 250.392 312.381 248.405 313.347C246.418 314.312 244.252 314.856 242.045 314.943C238.038 315.08 234.127 313.707 231.084 311.097C228.042 308.487 226.091 304.829 225.618 300.849C225.144 296.868 226.183 292.855 228.529 289.604C230.874 286.353 234.355 284.102 238.282 283.296H238.215ZM124.863 293.173C126.826 292.547 128.9 292.342 130.948 292.572C132.996 292.802 134.973 293.462 136.749 294.509C138.524 295.555 140.059 296.964 141.253 298.645C142.447 300.325 143.273 302.238 143.676 304.259C144.055 306.163 144.049 308.122 143.661 310.024C143.272 311.925 142.508 313.729 141.413 315.331C140.317 316.933 138.914 318.301 137.283 319.353C135.653 320.406 133.829 321.122 131.918 321.46C128.478 322.094 124.925 321.481 121.897 319.733C118.868 317.984 116.56 315.214 115.389 311.919C114.174 308.167 114.488 304.088 116.262 300.567C118.035 297.045 121.126 294.364 124.863 293.105V293.173Z" fill="#0B0B0B"/>
<path d="M231.361 225.175C232.033 224.503 232.84 223.629 232.571 222.756C232.369 221.076 230.219 220.673 229.077 221.748L223.5 226.72L219.133 230.617L217.117 232.431C215.265 233.907 213.596 235.599 212.145 237.471L212.749 238.143C213.22 238.815 213.69 239.352 214.564 239.352C215.571 239.352 216.378 238.613 217.117 238.008L217.386 237.74C220.275 235.052 223.231 232.364 226.188 229.811L231.294 225.242L231.429 225.175H231.361ZM246.614 224.503C246.95 223.293 246.48 222.487 245.539 221.815C244.195 221.546 242.918 222.285 241.776 222.957L240.903 223.495L231.899 228.669L222.223 234.313C221.148 234.918 221.081 235.657 221.081 236.597V237.605L221.887 237.807C222.694 238.076 223.433 238.344 224.306 237.807L234.452 232.028C237.661 230.141 240.887 228.282 244.128 226.451C245.107 225.99 245.96 225.298 246.614 224.436V224.503ZM264.554 224.301C265.898 223.831 267.376 224.436 267.511 226.048C267.511 227.594 266.368 227.997 265.159 228.4L264.621 228.601C256.191 231.172 247.77 233.77 239.357 236.396C238.484 236.664 237.61 236.933 236.67 236.396C235.46 235.589 235.527 233.574 236.938 232.969C238.148 232.364 239.424 232.028 240.768 231.625L242.515 231.088L250.242 228.736L264.554 224.301ZM280.008 232.364C280.68 231.222 280.411 230.348 279.672 229.341C278.194 228.87 276.38 229.341 274.7 229.677L273.02 230.013L267.309 231.155L258.977 232.835C257.633 233.171 256.491 233.977 256.894 235.455C257.297 236.799 258.238 237.068 259.582 236.866L267.645 235.321L275.372 233.775C275.708 233.775 275.977 233.641 276.245 233.574C277.589 233.372 278.933 233.103 280.008 232.364ZM156.644 235.253C158.413 236.41 160.205 237.53 162.02 238.613V238.68C163.229 239.352 164.371 240.091 165.379 240.965C166.589 241.905 166.253 243.854 164.842 244.324C163.632 244.526 162.826 244.056 161.885 243.451L161.213 243.048C158.333 241.197 155.444 239.361 152.546 237.538L149.724 235.724L149.522 235.589L149.253 235.388C148.581 234.918 147.641 234.313 147.641 233.439C147.439 231.827 149.119 230.752 150.597 231.491C152.613 232.633 154.629 233.977 156.644 235.253ZM141.997 235.791C140.653 235.388 139.309 234.918 137.965 234.649C136.285 234.313 135.21 235.993 135.748 237.538C136.496 238.261 137.424 238.771 138.435 239.016L138.771 239.151H138.973L147.036 241.838L155.435 244.459C157.048 244.996 158.66 244.862 158.996 242.846C158.862 241.435 157.652 240.965 156.51 240.494H156.443L156.241 240.427L155.905 240.293L143.676 236.396L141.929 235.791H141.997ZM278.463 235.657L285.451 235.455C287.131 235.455 288.81 235.455 290.49 235.321H291.364C292.506 235.321 293.782 235.321 294.32 236.396C295.126 237.538 294.118 238.882 292.976 239.218C290.96 239.621 288.877 239.621 286.795 239.554H284.443L282.427 239.621C281.308 239.656 280.187 239.656 279.068 239.621C278.194 239.621 276.917 239.419 276.716 238.546C276.57 238.244 276.503 237.91 276.518 237.575C276.534 237.241 276.634 236.915 276.807 236.628C276.98 236.341 277.223 236.102 277.512 235.933C277.801 235.763 278.128 235.668 278.463 235.657ZM126.072 240.763C124.728 240.696 123.25 240.629 121.974 240.965C120.966 241.771 120.966 243.249 121.906 244.19C122.981 244.66 124.325 244.727 125.535 244.862H125.871L132.791 245.265L140.653 245.735L142.4 245.803C143.609 245.937 144.886 246.071 146.028 245.803C147.372 245.399 147.775 243.72 146.834 242.712C146.23 242.04 145.491 242.04 144.819 241.973L144.012 241.905L135.613 241.301L127.214 240.763H126.072ZM118.48 246.609L121.503 246.407C124.258 246.206 127.147 245.937 129.902 246.139C131.918 246.273 131.985 249.297 130.104 249.767C128.088 250.237 126.072 250.372 124.056 250.439C122.847 250.439 121.638 250.439 120.495 250.64L118.076 250.775C116.464 250.909 114.717 251.111 113.171 250.842C111.492 250.573 111.29 247.885 112.835 247.281C114.077 246.908 115.369 246.727 116.665 246.743C117.337 246.743 117.875 246.743 118.48 246.609ZM116.128 255.881C118.144 255.209 118.009 252.32 115.792 252.051C113.911 252.051 111.962 252.455 110.081 252.723L107.393 253.261L105.646 253.53C104.168 253.664 102.421 253.933 101.614 254.941C100.808 256.553 101.95 258.031 103.63 257.897C107.796 257.427 112.096 256.755 116.128 255.881Z" fill="#0B0B0B"/>
<path d="M236.737 348.807L237.543 350.353C237.812 352.167 236.199 352.637 234.99 353.309C216.97 361.695 197.195 365.613 177.339 364.732C173.98 364.329 170.486 364.261 167.261 363.388C165.715 362.716 165.514 360.7 167.059 359.894C168.873 359.894 170.755 360.499 172.569 360.566C177.407 361.238 182.177 361.036 187.015 361.036C202.133 360.499 217.251 356.467 231.16 350.621C233.041 349.815 234.654 348.874 236.737 348.807Z" fill="#0B0B0B"/>
<path d="M361.041 75.6062C367.962 75.9422 375.017 76.1437 381.871 77.622C392.792 80.5716 402.664 86.532 410.36 94.823C414.689 99.6932 418.206 105.229 420.775 111.218C425.478 122.708 428.502 134.6 430.853 146.762C432.063 153.414 432.869 160.2 433.071 166.92C433.071 170.615 433.138 174.915 431.66 178.342C428.708 183.907 424.383 188.626 419.095 192.049C410.074 198.664 399.814 203.394 388.926 205.958C397.728 228.333 400.281 252.992 396.989 276.778C396.586 278.122 396.653 280.339 394.637 280.137C386.957 278.514 378.971 279.168 371.657 282.019C373.096 286.859 372.938 292.033 371.208 296.777C369.477 301.52 366.266 305.581 362.049 308.358C359.011 310.318 355.415 311.228 351.811 310.949C348.206 310.67 344.793 309.217 342.093 306.813C334.299 299.623 334.299 286.319 340.548 278.122C341.421 276.912 343.706 276.979 344.042 278.592C344.109 281.011 343.168 283.161 343.84 285.714C344.512 288.268 346.729 290.888 349.619 290.619C353.113 290.351 354.658 285.782 353.852 282.825C349.64 263.458 340.708 245.431 327.849 230.348C323.344 225.114 317.867 220.801 311.723 217.649C309.841 216.709 307.825 216.373 306.818 214.357C306.146 213.349 307.154 211.736 307.489 210.729C309.841 204.681 309.169 197.559 305.541 192.116C300.525 185.295 293.606 180.105 285.652 177.2C271.408 171.354 255.416 169.338 240.096 169.271C225.583 169.204 211.07 170.884 196.959 174.243C196.086 174.445 195.212 174.579 194.339 174.512C192.592 173.84 192.995 171.354 193.533 169.943C196.556 162.552 201.797 155.967 206.501 149.651C198.856 155.303 191.708 161.597 185.134 168.465C183.051 170.75 180.968 172.698 180.296 175.856C177.071 177.066 173.644 177.2 170.351 178.073C156.254 181.566 142.819 187.331 130.574 195.14C123.283 199.51 116.915 205.262 111.828 212.072C111.156 213.282 109.61 213.416 108.737 212.274C106.399 209.295 105.08 205.644 104.974 201.859C104.96 196.487 106.227 191.19 108.67 186.405C103.63 184.457 98.7924 182.71 94.2905 179.686C88.4145 176.589 83.5432 171.88 80.2475 166.113C78.299 162.216 78.9037 157.311 79.5756 153.145C82.1828 140.578 86.359 128.388 92.006 116.862C95.2329 108.852 100.242 101.683 106.654 95.8981C110.685 92.6057 115.523 91.3962 120.495 90.1868C126.744 88.7086 133.598 88.843 139.981 88.843C145.155 89.1117 150.328 89.3133 155.435 90.0524C161.885 90.9931 169.612 91.3962 175.458 94.5542C178.201 96.1916 180.557 98.4021 182.366 101.035C184.175 103.667 185.394 106.659 185.94 109.807C187.619 116.478 188.074 123.399 187.284 130.233C199.378 127.545 212.145 126 223.702 131.711C246.966 124.546 271.643 123.253 295.529 127.948C296.672 119.55 297.075 110.344 299.897 102.416C301.927 97.2441 305.403 92.7657 309.908 89.5149C313.402 86.6928 317.299 84.6771 321.398 82.9301C334.039 78.0325 347.485 75.5483 361.041 75.6062Z" fill="#0B0B0B"/>
<path d="M352.978 79.9737C362.385 79.6377 371.456 79.7049 380.661 81.4519C387.268 83.0198 393.457 85.9997 398.803 90.1868C406.059 95.2921 411.925 102.128 415.869 110.075C420.304 120.02 423.261 130.703 425.545 141.252C426.62 145.956 427.561 150.659 428.098 155.497C428.703 161.679 429.711 167.524 428.77 173.639C428.434 177.066 425.948 180.224 423.798 182.642C419.095 187.413 413.316 191.243 407.538 194.535C401.02 197.895 394.637 200.784 387.38 201.994C379.531 183.637 367.423 167.413 352.059 154.665C336.694 141.918 318.514 133.013 299.023 128.688C300.166 122.372 300.501 116.056 301.913 109.874C302.55 105.565 304.286 101.493 306.952 98.0482C309.841 94.823 312.999 91.9338 316.762 89.7165C327.981 83.8729 340.341 80.548 352.978 79.9737ZM153.083 93.8151C159.265 94.823 166.118 95.0246 171.897 97.3091C174.085 98.2936 176.045 99.7216 177.652 101.503C179.26 103.284 180.48 105.379 181.236 107.657C183.857 115.316 184.058 123.111 183.521 131.174C165.178 136.482 148.111 145.553 133.194 157.446C124.459 164.837 116.464 172.698 110.618 182.642C101.728 180.051 93.6075 175.322 86.9666 168.868C85.3823 167.337 84.2029 165.437 83.5344 163.338C82.866 161.238 82.7293 159.006 83.1367 156.841C85.1524 142.865 90.6621 128.956 96.7766 116.257C100.136 109.672 103.63 103.558 109.543 98.8545C113.037 96.0325 118.211 94.823 122.511 93.8823C132.656 92.5205 142.938 92.5205 153.083 93.8823V93.8151Z" fill="#202020"/>
<path d="M275.036 129.36C301.576 130.771 327.445 140.11 348.14 156.908C363.93 169.607 376.361 186.204 384.155 204.883C393.455 227.137 396.544 251.496 393.091 275.367C384.252 274.45 375.327 275.887 367.223 279.533C367.021 281.548 367.76 283.295 368.163 285.177C368.948 289.074 368.477 293.12 366.82 296.734L366.685 297.137C365.611 299.677 363.916 301.906 361.756 303.62C359.596 305.334 357.039 306.478 354.322 306.947C352.159 307.173 349.976 306.812 348.001 305.901C346.026 304.991 344.333 303.565 343.101 301.773C340.731 298.311 339.66 294.122 340.077 289.947L341.287 290.082C342.496 291.493 343.504 292.769 345.184 293.643C349.081 295.995 354.591 294.315 356.606 290.283C358.251 287.084 358.564 283.365 357.48 279.936C353.717 264.751 347.401 250.036 338.465 237.202C331.074 226.989 322.943 217.918 311.118 212.879C313.201 207.033 313.805 200.784 311.454 194.939C307.96 185.532 299.359 179.081 290.557 174.915C276.521 168.853 261.43 165.611 246.143 165.374C237.677 164.702 229.01 165.509 220.611 166.113C213.152 166.92 205.828 168.129 198.437 169.674C199.109 167.188 200.453 165.105 201.931 162.955C207.081 155.072 213.074 147.772 219.804 141.185C221.35 139.505 220.342 138.094 218.46 137.355C212.077 140.984 205.694 144.948 199.848 149.517C195.817 152.877 191.853 156.303 188.157 159.999C184.126 164.03 180.094 167.659 177.205 172.631C165.11 174.579 153.419 178.611 142.265 183.919C130.101 189.355 119.207 197.274 110.282 207.167C108.468 203.136 108.669 198.768 109.879 194.603C112.225 187.344 116.071 180.659 121.167 174.983C126.677 168.331 133.127 162.754 139.981 157.513C152.763 147.938 167.076 140.6 182.311 135.81C188.56 133.929 195.212 132.45 201.797 132.047C206.366 131.98 210.801 131.778 215.235 132.921C218.125 133.593 220.611 134.869 223.298 136.011C239.962 130.838 257.633 128.419 275.036 129.36Z" fill="#202020"/>
</svg>
